# xmcd CD database file
#
# Track frame offsets:
#	150
#	30615
#	55365
#	69015
#	83370
#	96990
#	107115
#	123090
#	135615
#	151965
#	163515
#	184365
#
# Disc length: 2806 seconds
#
# Revision: 0
# Processed by: cddbd v1.5.1PL2 Copyright (c) Steve Scherf et al.
# Submitted via: CDex 1.50Beta7
#
DISCID=920af40c
DTITLE=村八分 - 村八分BOX (Disc2 1972年8月27日 京都円山野外音楽堂 「村八分No.1コンサート」)
DYEAR=2005
DGENRE=Rock
TTITLE0=あやつり人形 (1972年8月27日 京都円山野外音楽堂 「村八分No.1コンサート」)
TTITLE1=はなからちょうちん (1972年8月27日 京都円山野外音楽堂 「村八分No.1コンサート」)
TTITLE2=夢うつつ (1972年8月27日 京都円山野外音楽堂 「村八分No.1コンサート」)
TTITLE3=あっ！ (1972年8月27日 京都円山野外音楽堂 「村八分No.1コンサート」)
TTITLE4=どうしようかな (1972年8月27日 京都円山野外音楽堂 「村八分No.1コンサート」)
TTITLE5=ぐにゃぐにゃ (1972年8月27日 京都円山野外音楽堂 「村八分No.1コンサート」)
TTITLE6=機関車25 (1972年8月27日 京都円山野外音楽堂 「村八分No.1コンサート」)
TTITLE7=水たまり (1972年8月27日 京都円山野外音楽堂 「村八分No.1コンサート」)
TTITLE8=のうみそ半分 (1972年8月27日 京都円山野外音楽堂 「村八分No.1コンサート」)
TTITLE9=にげろ (1972年8月27日 京都円山野外音楽堂 「村八分No.1コンサート」)
TTITLE10=ドラネコ (1972年8月27日 京都円山野外音楽堂 「村八分No.1コンサート」)
TTITLE11=馬の骨 (1972年8月27日 京都円山野外音楽堂 「村八分No.1コンサート」)
EXTD=YEAR: 2005
EXTT0=
EXTT1=
EXTT2=
EXTT3=
EXTT4=
EXTT5=
EXTT6=
EXTT7=
EXTT8=
EXTT9=
EXTT10=
EXTT11=
PLAYORDER=
